<?xml version="1.0" encoding="UTF-8" standalone="no"?>
<!-- Translated from PostScript by ps2svg.ps. Ross Inglis. ringlis@ipv.com -->
<svg
   xmlns:dc="http://purl.org/dc/elements/1.1/"
   xmlns:cc="http://creativecommons.org/ns#"
   xmlns:rdf="http://www.w3.org/1999/02/22-rdf-syntax-ns#"
   xmlns:svg="http://www.w3.org/2000/svg"
   xmlns="http://www.w3.org/2000/svg"
   xmlns:sodipodi="http://sodipodi.sourceforge.net/DTD/sodipodi-0.dtd"
   xmlns:inkscape="http://www.inkscape.org/namespaces/inkscape"
   width="100%"
   viewBox="0 0 187.08785 840"
   stroke="rgb(0,0,0)"
   fill="none"
   id="svg2"
   sodipodi:version="0.32"
   inkscape:version="0.46"
   height="83.000626"
   sodipodi:docname="OpenGL_logo_flat.svg"
   inkscape:output_extension="org.inkscape.output.svg.inkscape"
   sodipodi:docbase="/home/paulo"
   version="1.0">
  <metadata
     id="metadata111">
    <rdf:RDF>
      <cc:Work
         rdf:about="">
        <dc:format>image/svg+xml</dc:format>
        <dc:type
           rdf:resource="http://purl.org/dc/dcmitype/StillImage" />
      </cc:Work>
    </rdf:RDF>
  </metadata>
  <defs
     id="defs109">
    <inkscape:perspective
       sodipodi:type="inkscape:persp3d"
       inkscape:vp_x="0 : 41.500313 : 1"
       inkscape:vp_y="0 : 1000 : 0"
       inkscape:vp_z="1 : 41.500313 : 1"
       inkscape:persp3d-origin="0.5 : 27.666875 : 1"
       id="perspective31" />
  </defs>
  <sodipodi:namedview
     inkscape:window-height="873"
     inkscape:window-width="1438"
     inkscape:pageshadow="2"
     inkscape:pageopacity="0.0"
     guidetolerance="10.0"
     gridtolerance="10.0"
     objecttolerance="10.0"
     borderopacity="1.0"
     bordercolor="#666666"
     pagecolor="#ffffff"
     id="base"
     inkscape:zoom="4.4296259"
     inkscape:cx="120.77008"
     inkscape:cy="66.774515"
     inkscape:window-x="177"
     inkscape:window-y="73"
     inkscape:current-layer="svg2"
     showgrid="false" />
  <style
     type="text/css"
     id="style4">text {font-family:Times-Roman;font-size:10;fill:black;stroke:none}</style>
  <path
     d="M -428.96377,609.27869 C -519.65437,609.27869 -564.23348,554.03245 -581.63724,496.33834 C -561.98462,590.0042 -455.90029,681.68987 -121.22871,722.59716 C 194.98436,761.24565 401.03342,664.37567 470.56884,619.27913 C 470.56884,619.27913 517.52615,598.61154 489.33585,630.56322 C 489.33585,630.56322 290.20262,814.65101 -100.56112,816.52173 C -491.3148,818.41236 -801.29875,621.16977 -799.42802,421.99673 C -801.29875,222.8635 -491.3148,25.620889 -100.56112,27.481669 C 290.20262,29.372299 489.33585,213.47005 489.33585,213.47005 C 517.52615,245.42171 470.56884,224.75414 470.56884,224.75414 C 401.03342,179.6576 195.86012,90.857629 -121.22871,121.40625 C -433.0734,151.49715 -534.86898,257.43221 -568.69139,328.82841 C -581.71684,356.29232 -587.5778,382.20392 -589.0704,408.30458 C -580.64217,340.20205 -538.31192,259.89002 -428.96377,259.89002 C -305.09758,259.89002 -267.1954,362.93938 -267.1954,434.56445 C -267.1954,506.21938 -305.09758,609.27869 -428.96377,609.27869 z M 830.09724,540.4199 L 995.09964,540.4199 L 995.09964,600.50218 L 760.78074,600.50218 L 760.78074,268.65658 L 830.09724,268.65658 L 830.09724,540.4199 z M 575.53874,421.6186 L 714.19164,421.6186 L 714.19164,600.50218 L 667.96074,600.50218 L 661.04494,558.89834 C 643.47204,579.21765 618.04804,609.27869 557.49814,609.27869 C 477.56419,609.27869 405.00374,551.96271 405.00374,435.49982 C 405.00374,344.91868 455.37415,259.42234 567.20994,259.89002 C 668.88614,259.89002 709.08694,325.97256 712.78854,371.71589 L 643.47204,371.71589 C 643.47204,358.77004 619.90884,317.19605 570.91164,317.19605 C 521.46663,317.19605 475.72331,351.39658 475.72331,436.43518 C 475.72331,527.00638 525.16829,550.55966 572.30474,550.55966 C 587.54914,550.55966 638.39724,544.55939 652.70634,477.57134 L 575.53874,477.57134 L 575.53874,421.6186 z M -428.96377,299.62313 C -501.05653,299.62313 -544.4913,356.46148 -544.4913,434.56445 C -544.4913,512.66743 -501.05653,569.51572 -428.96377,569.51572 C -356.87101,569.51572 -313.43625,512.66743 -313.43625,434.56445 C -313.43625,356.46148 -356.87101,299.62313 -428.96377,299.62313 z M -242.32862,388.27384 L -208.65548,388.27384 L -208.65548,418.29507 L -207.83952,418.29507 C -199.33169,406.14528 -183.09215,382.20392 -144.55313,382.20392 C -88.142661,382.20392 -47.941861,429.98714 -47.941861,489.63158 C -47.941861,540.36021 -77.177001,606.56215 -149.41902,606.56215 C -177.81829,606.56215 -196.47583,593.18843 -205.79963,578.17283 L -206.61559,578.17283 L -206.61559,684.48602 L -242.32862,684.48602 L -242.32862,388.27384 z M -152.1057,575.75481 C -113.15869,575.75481 -86.739611,541.99212 -86.739611,495.32337 C -86.739611,468.14804 -97.735133,414.24515 -152.92166,414.24515 C -204.42643,414.24515 -210.11823,469.83965 -210.11823,504.32875 C -210.11823,560.73922 -174.84303,575.75481 -152.1057,575.75481 z M 168.10754,533.942 C 166.91345,544.09172 157.17173,574.12289 130.38447,591.96448 C 120.6527,598.46229 106.86104,606.56215 72.779919,606.56215 C 13.135479,606.56215 -22.169571,561.52533 -22.169571,500.27882 C -22.169571,434.5346 9.4935292,382.20392 79.655849,382.20392 C 140.94215,382.20392 170.96338,430.89265 170.96338,505.96066 L 15.961479,505.96066 C 15.961479,550.18154 36.658909,575.75481 77.645809,575.75481 C 111.31895,575.75481 131.20043,549.77356 132.42436,533.942 L 168.10754,533.942 z M 130.26506,477.53154 C 128.25502,444.68431 114.46337,414.24515 71.058449,414.24515 C 38.181369,414.24515 12.200119,444.68431 12.200119,477.53154 L 130.26506,477.53154 z M 368.29564,600.50218 L 332.58261,600.50218 L 332.58261,469.83965 C 332.58261,432.90269 322.03488,414.24515 287.13781,414.24515 C 266.84835,414.24515 231.16517,427.2507 231.16517,484.85525 L 231.16517,600.50218 L 195.45203,600.50218 L 195.45203,388.27384 L 229.12528,388.27384 L 229.12528,418.29507 L 229.94123,418.29507 C 237.63312,406.96124 257.5146,382.20392 294.04359,382.20392 C 326.90076,382.20392 368.29564,395.58759 368.29564,456.04799 L 368.29564,600.50218 z"
     id="path106"
     style="fill:#1496c4;fill-rule:evenodd;stroke:none;stroke-miterlimit:10" />
</svg>
