<?xml version="1.0" encoding="UTF-8" standalone="no"?>
<!-- Created with Inkscape (http://www.inkscape.org/) -->
<svg
   xmlns:dc="http://purl.org/dc/elements/1.1/"
   xmlns:cc="http://creativecommons.org/ns#"
   xmlns:rdf="http://www.w3.org/1999/02/22-rdf-syntax-ns#"
   xmlns:svg="http://www.w3.org/2000/svg"
   xmlns="http://www.w3.org/2000/svg"
   xmlns:xlink="http://www.w3.org/1999/xlink"
   xmlns:sodipodi="http://sodipodi.sourceforge.net/DTD/sodipodi-0.dtd"
   xmlns:inkscape="http://www.inkscape.org/namespaces/inkscape"
   width="744.09448819"
   height="1052.3622047"
   id="svg2"
   sodipodi:version="0.32"
   inkscape:version="0.46"
   sodipodi:docname="tanker.svg"
   inkscape:output_extension="org.inkscape.output.svg.inkscape">
  <defs
     id="defs4">
    <inkscape:perspective
       sodipodi:type="inkscape:persp3d"
       inkscape:vp_x="0 : 526.18109 : 1"
       inkscape:vp_y="0 : 1000 : 0"
       inkscape:vp_z="744.09448 : 526.18109 : 1"
       inkscape:persp3d-origin="372.04724 : 350.78739 : 1"
       id="perspective10" />
    <inkscape:perspective
       id="perspective3209"
       inkscape:persp3d-origin="372.04724 : 350.78739 : 1"
       inkscape:vp_z="744.09448 : 526.18109 : 1"
       inkscape:vp_y="0 : 1000 : 0"
       inkscape:vp_x="0 : 526.18109 : 1"
       sodipodi:type="inkscape:persp3d" />
  </defs>
  <sodipodi:namedview
     id="base"
     pagecolor="#ffffff"
     bordercolor="#666666"
     borderopacity="1.0"
     gridtolerance="10000"
     guidetolerance="10"
     objecttolerance="10"
     inkscape:pageopacity="0.0"
     inkscape:pageshadow="2"
     inkscape:zoom="32"
     inkscape:cx="149.53039"
     inkscape:cy="455.32465"
     inkscape:document-units="px"
     inkscape:current-layer="layer2"
     showgrid="true"
     inkscape:window-width="1660"
     inkscape:window-height="974"
     inkscape:window-x="18"
     inkscape:window-y="12">
    <inkscape:grid
       type="xygrid"
       id="grid2383" />
  </sodipodi:namedview>
  <metadata
     id="metadata7">
    <rdf:RDF>
      <cc:Work
         rdf:about="">
        <dc:format>image/svg+xml</dc:format>
        <dc:type
           rdf:resource="http://purl.org/dc/dcmitype/StillImage" />
      </cc:Work>
    </rdf:RDF>
  </metadata>
  <g
     inkscape:groupmode="layer"
     id="layer2"
     inkscape:label="Layer 2"
     style="display:inline">
    <path
       id="path3217"
       style="fill:none;fill-rule:evenodd;stroke:#ff0000;stroke-width:1px;stroke-linecap:butt;stroke-linejoin:miter;stroke-opacity:1;display:inline"
       d="M 175.00069,607.36863 L 171,607.36218 C 165,605.36218 159,597.36218 159,597.36218 C 159,597.36218 152,588.36218 147,587.36218 L 140,587.36218 L 137,607.36218 L 123,607.36218 L 123,587.36218 L 135,587.36218 C 135,576.36218 127,572.36218 127,572.36218 C 127,572.36218 117,568.36218 117,562.36218 L 115,538.36218 L 136,538.36218 L 136,509.36218 L 154,509.36218 L 156,483.36218 L 168,483.36218 C 168,483.36218 168,510.36218 168,510.36218 L 172,510.36218 L 172,504.36218 L 183,504.36218 C 183,504.36218 183,502.36218 183,502.36218 L 189,502.36218 L 189,492.36218 L 216,492.36218 L 216,539.36218 L 558,539.36218 L 567,531.36218 L 653,527.36218 C 653,531.36218 639.8458,555.25269 638,557.36218 C 638,557.36218 636,560.36218 632,565.36218 C 631.76261,565.39936 620,578.36218 624.86742,586.4341 C 648.88909,608.15768 610,607.36218 610,607.36218 C 610,607.36218 610,607.36218 175,607.36218"
       sodipodi:nodetypes="cccccccccccccccccccccccccccccccccc" />
    <path
       style="fill:none;fill-rule:evenodd;stroke:#000000;stroke-width:1px;stroke-linecap:butt;stroke-linejoin:miter;stroke-opacity:1"
       d="M 159,597.36218 L 147,597.36218 L 147,599.36218 L 161,599.36218"
       id="path2388"
       sodipodi:nodetypes="cccc" />
    <path
       style="fill:none;fill-rule:evenodd;stroke:#000000;stroke-width:1px;stroke-linecap:butt;stroke-linejoin:miter;stroke-opacity:1"
       d="M 147,597.36218 L 145,594.36218 L 147,589.36218 L 149,594.36218 L 149,602.36218 L 147,607.36218 L 145,602.36218 L 147,599.36218"
       id="path2390"
       sodipodi:nodetypes="cccccccc" />
  </g>
</svg>
